<svg width="144" height="41" viewBox="0 0 144 41" fill="none" xmlns="http://www.w3.org/2000/svg">
<path d="M130.378 38.1323C125.423 38.1323 122.1 35.7138 122.1 31.551C122.1 27.4476 125.423 24.7476 131.506 24.7476C135.615 24.7476 138.828 25.4216 141.25 26.0401V29.303C141.25 34.5324 136.239 38.1323 130.378 38.1323ZM130.211 40.7172C135.675 40.7172 139.221 38.0173 141.194 35.2619V40.0432H143.898V22.1627C143.898 18.6183 142.886 15.9778 140.968 14.0669C138.883 11.9854 135.786 10.9189 131.899 10.9189C127.956 10.9189 124.859 11.9299 121.706 13.3929L122.719 15.8113C125.367 14.4633 128.238 13.5039 131.732 13.5039C137.644 13.5039 141.194 16.4853 141.194 22.2777V23.5146C138.435 22.7851 135.675 22.2777 131.677 22.2777C124.244 22.2777 119.118 25.6516 119.118 31.6144C119.118 37.6803 124.299 40.7172 130.211 40.7172Z" fill="#E71A00"/>
<path d="M98.0537 40.043H100.813V33.0692L107.794 26.0399L119.173 40.043H122.663L109.711 24.0734L122.27 11.3628H118.609L100.813 29.7508V11.3628H98.0537V40.043Z" fill="black"/>
<path d="M71.5818 40.043H74.3413L93.829 15.0182V40.043H96.5885V11.3628H93.829L74.3413 36.3876V11.3628H71.5818V40.043Z" fill="#E71A00"/>
<path d="M56.7715 40.043H59.531V13.8367H70.2873V11.3628H46.0151V13.8367H56.7715V40.043Z" fill="black"/>
<path d="M20.8417 40.043H23.6012V13.8367H41.9612V40.043H44.7208V11.3628H20.8417V40.043Z" fill="#E71A00"/>
<path d="M19.8847 38.0765C10.1409 38.0765 3.04544 30.0917 3.04544 20.3624C3.04544 10.5222 10.0297 2.64838 19.7735 2.64838C29.5174 2.64838 36.6128 10.6332 36.6128 20.3624C36.6088 30.2027 29.6246 38.0765 19.8847 38.0765ZM19.7696 40.7169C31.7091 40.7169 39.6503 31.1026 39.6503 20.3585C39.6503 9.50326 31.8203 0 19.8807 0C7.94118 0 0 9.61823 0 20.3585C0.00397059 31.2137 7.83 40.7169 19.7696 40.7169Z" fill="black"/>
<path d="M143.898 0.00439453H98.141V9.72174H143.898V0.00439453Z" fill="#E71A00"/>
<path d="M101.993 1.57422V2.95392C101.993 6.53796 101.544 7.04543 100.754 7.04543C100.658 7.04543 100.591 7.0375 100.523 7.02561L100.428 8.23086C100.607 8.27844 100.96 8.31808 101.198 8.31808C102.723 8.31808 103.358 7.31899 103.358 3.40192V2.89841H105.284V8.23086H106.749V1.57422H101.993Z" fill="white"/>
<path d="M116.759 5.44777H114.988L115.874 3.29101L116.759 5.44777ZM119.427 8.23492L116.569 1.53467H115.215L112.356 8.23492H113.853L114.464 6.74421H117.283L117.895 8.23492H119.427Z" fill="white"/>
<path d="M130.775 1.57812H129.417L126.483 5.9432V1.57812H125.034V8.23477H126.416L129.33 3.86969V8.23477H130.775V1.57812Z" fill="white"/>
<path d="M127.905 1.495C128.5 1.495 128.901 1.13422 128.993 0.511772L128.417 0.408691C128.333 0.674323 128.179 0.840838 127.905 0.840838C127.631 0.840838 127.476 0.674323 127.392 0.408691L126.817 0.511772C126.908 1.13422 127.309 1.495 127.905 1.495Z" fill="white"/>
<path d="M136.386 8.23477H137.851V5.56259H140.555V8.23477H142.02V1.57812H140.555V4.21461H137.851V1.57812H136.386V8.23477Z" fill="white"/>
</svg>
